# Blender v2.79 (sub 0) OBJ File: 'phmetro.blend'
# www.blender.org
mtllib chao.mtl
o Plane.001
v 19.389717 -3.604282 23.709038
v 19.389717 -3.604282 14.765081
v 19.389717 -3.604282 5.821125
v 19.389717 -3.604282 -3.122831
v 8.284914 -3.604281 23.709038
v -2.819889 -3.604280 23.709038
v -13.924690 -3.604278 23.709038
v 19.389717 -3.604282 32.652992
v 19.389717 -3.604282 41.596951
v 19.389717 -3.604282 50.540909
v 30.494520 -3.604284 23.709038
v 41.599323 -3.604285 23.709038
v 52.704124 -3.604286 23.709038
v 30.494520 -3.604284 14.765081
v 30.494520 -3.604284 5.821125
v 30.494522 -3.604284 -3.122831
v 41.599323 -3.604285 14.765082
v 41.599323 -3.604285 5.821125
v 41.599323 -3.604285 -3.122831
v 52.704124 -3.604286 14.765082
v 52.704124 -3.604286 5.821125
v 52.704124 -3.604286 -3.122831
v 8.284914 -3.604281 14.765081
v -2.819889 -3.604280 14.765080
v -13.924690 -3.604278 14.765080
v 8.284914 -3.604281 5.821125
v -2.819889 -3.604280 5.821125
v -13.924690 -3.604278 5.821125
v 8.284915 -3.604281 -3.122831
v -2.819889 -3.604280 -3.122831
v -13.924690 -3.604278 -3.122831
v 8.284914 -3.604281 32.652992
v 8.284914 -3.604281 41.596951
v 8.284913 -3.604281 50.540909
v -2.819889 -3.604280 32.652992
v -2.819889 -3.604280 41.596951
v -2.819889 -3.604280 50.540909
v -13.924690 -3.604278 32.652992
v -13.924690 -3.604278 41.596951
v -13.924690 -3.604278 50.540909
v 30.494520 -3.604284 32.652992
v 41.599323 -3.604285 32.652996
v 52.704124 -3.604286 32.652996
v 30.494520 -3.604284 41.596951
v 41.599323 -3.604285 41.596951
v 52.704124 -3.604286 41.596951
v 30.494518 -3.604284 50.540909
v 41.599323 -3.604285 50.540909
v 52.704124 -3.604286 50.540909
v 63.808929 -3.604288 50.540909
v 63.808929 -3.604288 41.596954
v 63.808929 -3.604288 32.652996
v 63.808929 -3.604288 23.709040
v 63.808929 -3.604288 14.765082
v 63.808929 -3.604288 5.821127
v 63.808929 -3.604288 -3.122829
v 52.704124 -3.604286 -12.066788
v 41.599323 -3.604285 -12.066788
v 30.494522 -3.604284 -12.066788
v 19.389717 -3.604282 -12.066788
v 8.284915 -3.604281 -12.066788
v -2.819889 -3.604280 -12.066788
v -13.924690 -3.604278 -12.066788
v -25.029495 -3.604277 -3.122833
v -25.029495 -3.604277 5.821123
v -25.029495 -3.604277 14.765080
v -25.029495 -3.604277 23.709036
v -25.029495 -3.604277 32.652992
v -25.029495 -3.604277 41.596947
v -25.029495 -3.604277 50.540905
v -13.924690 -3.604278 59.484863
v -2.819889 -3.604280 59.484863
v 8.284913 -3.604281 59.484863
v 19.389717 -3.604282 59.484863
v 30.494518 -3.604284 59.484863
v 41.599323 -3.604285 59.484863
v 52.704124 -3.604286 59.484863
v 63.808929 -3.604288 -12.066788
v -25.029495 -3.604277 -12.066788
v 63.808929 -3.604288 59.484863
v -25.029495 -3.604277 59.484863
vt 0.500000 0.614679
vt 0.385321 0.500000
vt 0.500000 0.500000
vt 0.385321 0.614679
vt 0.270642 0.500000
vt 0.270642 0.614679
vt 0.155963 0.500000
vt 0.155963 0.614679
vt 0.041284 0.500000
vt 0.500000 0.729358
vt 0.385321 0.729358
vt 0.270642 0.729358
vt 0.155963 0.729358
vt 0.041284 0.614679
vt 0.500000 0.844037
vt 0.385321 0.844037
vt 0.270642 0.844037
vt 0.155963 0.844037
vt 0.041284 0.729358
vt 0.500000 0.958715
vt 0.385321 0.958715
vt 0.270642 0.958715
vt 0.155963 0.958715
vt 0.041285 0.844037
vt 0.500000 0.385321
vt 0.385321 0.385321
vt 0.500000 0.270642
vt 0.385321 0.270642
vt 0.500000 0.155963
vt 0.385321 0.155963
vt 0.500000 0.041284
vt 0.270642 0.385321
vt 0.270642 0.270642
vt 0.270642 0.155963
vt 0.385321 0.041284
vt 0.155963 0.385321
vt 0.155963 0.270642
vt 0.155963 0.155963
vt 0.270642 0.041284
vt 0.041284 0.385321
vt 0.041284 0.270642
vt 0.041284 0.155963
vt 0.155963 0.041285
vt 0.614679 0.500000
vt 0.614679 0.385321
vt 0.729358 0.500000
vt 0.729358 0.385321
vt 0.844037 0.500000
vt 0.844037 0.385321
vt 0.958715 0.500000
vt 0.614679 0.270642
vt 0.729358 0.270642
vt 0.844037 0.270642
vt 0.958715 0.385321
vt 0.614679 0.155963
vt 0.729358 0.155963
vt 0.844037 0.155963
vt 0.958715 0.270642
vt 0.614679 0.041284
vt 0.729358 0.041284
vt 0.844037 0.041284
vt 0.958715 0.155963
vt 0.614679 0.614679
vt 0.614679 0.729358
vt 0.614679 0.844037
vt 0.729358 0.614679
vt 0.729358 0.729358
vt 0.729358 0.844037
vt 0.614679 0.958715
vt 0.844037 0.614679
vt 0.844037 0.729358
vt 0.844037 0.844037
vt 0.729358 0.958715
vt 0.958715 0.614679
vt 0.958715 0.729358
vt 0.958715 0.844037
vt 0.844037 0.958715
vt 0.041285 0.958716
vt 0.041284 0.041285
vt 0.958715 0.041284
vt 0.958716 0.958715
vn 0.0000 1.0000 0.0000
g Plane.001_Plane.001_chao
usemtl chao
s off
f 11/1/1 2/2/1 1/3/1
f 14/4/1 3/5/1 2/2/1
f 15/6/1 4/7/1 3/5/1
f 16/8/1 60/9/1 4/7/1
f 12/10/1 14/4/1 11/1/1
f 17/11/1 15/6/1 14/4/1
f 18/12/1 16/8/1 15/6/1
f 19/13/1 59/14/1 16/8/1
f 13/15/1 17/11/1 12/10/1
f 20/16/1 18/12/1 17/11/1
f 21/17/1 19/13/1 18/12/1
f 22/18/1 58/19/1 19/13/1
f 53/20/1 20/16/1 13/15/1
f 54/21/1 21/17/1 20/16/1
f 55/22/1 22/18/1 21/17/1
f 56/23/1 57/24/1 22/18/1
f 2/2/1 5/25/1 1/3/1
f 23/26/1 6/27/1 5/25/1
f 24/28/1 7/29/1 6/27/1
f 25/30/1 67/31/1 7/29/1
f 3/5/1 23/26/1 2/2/1
f 26/32/1 24/28/1 23/26/1
f 27/33/1 25/30/1 24/28/1
f 28/34/1 66/35/1 25/30/1
f 4/7/1 26/32/1 3/5/1
f 29/36/1 27/33/1 26/32/1
f 30/37/1 28/34/1 27/33/1
f 31/38/1 65/39/1 28/34/1
f 60/9/1 29/36/1 4/7/1
f 61/40/1 30/37/1 29/36/1
f 62/41/1 31/38/1 30/37/1
f 63/42/1 64/43/1 31/38/1
f 5/25/1 8/44/1 1/3/1
f 32/45/1 9/46/1 8/44/1
f 33/47/1 10/48/1 9/46/1
f 34/49/1 74/50/1 10/48/1
f 6/27/1 32/45/1 5/25/1
f 35/51/1 33/47/1 32/45/1
f 36/52/1 34/49/1 33/47/1
f 37/53/1 73/54/1 34/49/1
f 7/29/1 35/51/1 6/27/1
f 38/55/1 36/52/1 35/51/1
f 39/56/1 37/53/1 36/52/1
f 40/57/1 72/58/1 37/53/1
f 67/31/1 38/55/1 7/29/1
f 68/59/1 39/56/1 38/55/1
f 69/60/1 40/57/1 39/56/1
f 70/61/1 71/62/1 40/57/1
f 8/44/1 11/1/1 1/3/1
f 41/63/1 12/10/1 11/1/1
f 42/64/1 13/15/1 12/10/1
f 43/65/1 53/20/1 13/15/1
f 9/46/1 41/63/1 8/44/1
f 44/66/1 42/64/1 41/63/1
f 45/67/1 43/65/1 42/64/1
f 46/68/1 52/69/1 43/65/1
f 10/48/1 44/66/1 9/46/1
f 47/70/1 45/67/1 44/66/1
f 48/71/1 46/68/1 45/67/1
f 49/72/1 51/73/1 46/68/1
f 74/50/1 47/70/1 10/48/1
f 75/74/1 48/71/1 47/70/1
f 76/75/1 49/72/1 48/71/1
f 77/76/1 50/77/1 49/72/1
f 11/1/1 14/4/1 2/2/1
f 14/4/1 15/6/1 3/5/1
f 15/6/1 16/8/1 4/7/1
f 16/8/1 59/14/1 60/9/1
f 12/10/1 17/11/1 14/4/1
f 17/11/1 18/12/1 15/6/1
f 18/12/1 19/13/1 16/8/1
f 19/13/1 58/19/1 59/14/1
f 13/15/1 20/16/1 17/11/1
f 20/16/1 21/17/1 18/12/1
f 21/17/1 22/18/1 19/13/1
f 22/18/1 57/24/1 58/19/1
f 53/20/1 54/21/1 20/16/1
f 54/21/1 55/22/1 21/17/1
f 55/22/1 56/23/1 22/18/1
f 56/23/1 78/78/1 57/24/1
f 2/2/1 23/26/1 5/25/1
f 23/26/1 24/28/1 6/27/1
f 24/28/1 25/30/1 7/29/1
f 25/30/1 66/35/1 67/31/1
f 3/5/1 26/32/1 23/26/1
f 26/32/1 27/33/1 24/28/1
f 27/33/1 28/34/1 25/30/1
f 28/34/1 65/39/1 66/35/1
f 4/7/1 29/36/1 26/32/1
f 29/36/1 30/37/1 27/33/1
f 30/37/1 31/38/1 28/34/1
f 31/38/1 64/43/1 65/39/1
f 60/9/1 61/40/1 29/36/1
f 61/40/1 62/41/1 30/37/1
f 62/41/1 63/42/1 31/38/1
f 63/42/1 79/79/1 64/43/1
f 5/25/1 32/45/1 8/44/1
f 32/45/1 33/47/1 9/46/1
f 33/47/1 34/49/1 10/48/1
f 34/49/1 73/54/1 74/50/1
f 6/27/1 35/51/1 32/45/1
f 35/51/1 36/52/1 33/47/1
f 36/52/1 37/53/1 34/49/1
f 37/53/1 72/58/1 73/54/1
f 7/29/1 38/55/1 35/51/1
f 38/55/1 39/56/1 36/52/1
f 39/56/1 40/57/1 37/53/1
f 40/57/1 71/62/1 72/58/1
f 67/31/1 68/59/1 38/55/1
f 68/59/1 69/60/1 39/56/1
f 69/60/1 70/61/1 40/57/1
f 70/61/1 81/80/1 71/62/1
f 8/44/1 41/63/1 11/1/1
f 41/63/1 42/64/1 12/10/1
f 42/64/1 43/65/1 13/15/1
f 43/65/1 52/69/1 53/20/1
f 9/46/1 44/66/1 41/63/1
f 44/66/1 45/67/1 42/64/1
f 45/67/1 46/68/1 43/65/1
f 46/68/1 51/73/1 52/69/1
f 10/48/1 47/70/1 44/66/1
f 47/70/1 48/71/1 45/67/1
f 48/71/1 49/72/1 46/68/1
f 49/72/1 50/77/1 51/73/1
f 74/50/1 75/74/1 47/70/1
f 75/74/1 76/75/1 48/71/1
f 76/75/1 77/76/1 49/72/1
f 77/76/1 80/81/1 50/77/1
