# Blender v2.79 (sub 0) OBJ File: 'phmetro.blend'
# www.blender.org
mtllib prateleira.mtl
o Cube.029_Cube.018
v 2.473122 3.116841 25.016354
v 2.473122 3.264681 25.016354
v 2.473122 3.116841 22.441845
v 2.473122 3.264681 22.441845
v 30.013710 3.116841 25.016354
v 30.013710 3.264681 25.016354
v 30.013710 3.116841 22.441845
v 30.013710 3.264681 22.441845
v 29.858013 3.116841 22.441845
v 29.858013 3.264681 22.441845
v 29.858013 3.116841 25.016354
v 29.858013 3.264681 25.016354
v 2.630079 3.116841 22.441845
v 2.630079 3.264681 25.016354
v 2.630079 3.264681 22.441845
v 2.630079 3.116841 25.016354
v 2.473122 -0.002736 22.441845
v 2.473122 -0.002736 25.016354
v 2.630079 -0.002736 22.441845
v 30.013710 -0.002736 25.016354
v 30.013710 -0.002736 22.441845
v 29.858013 -0.002736 25.016354
v 29.858013 -0.002736 22.441845
v 2.630079 -0.002736 25.016354
v 30.013710 1.644209 22.441845
v 30.013710 1.437607 22.441845
v 29.858013 1.437607 22.441845
v 29.858013 1.644209 22.441845
v 29.858013 1.644209 25.016354
v 29.858013 1.437607 25.016354
v 30.013710 1.437607 25.016354
v 30.013710 1.644209 25.016354
v 2.473122 1.643562 25.016354
v 2.473122 1.441500 25.016354
v 2.630079 1.441500 25.016354
v 2.630079 1.643562 25.016354
v 2.630079 1.643562 22.441845
v 2.630079 1.441500 22.441845
v 2.473122 1.441500 22.441845
v 2.473122 1.643562 22.441845
v 16.167183 1.441500 25.016354
v 16.167183 1.643562 25.016354
v 16.167183 1.643562 22.441845
v 16.167183 1.441500 22.441845
v 16.326851 1.437607 22.441845
v 16.326851 1.644209 22.441845
v 16.326851 1.644209 25.016354
v 16.326851 1.437607 25.016354
v 16.166033 0.021095 25.016354
v 16.166033 0.021095 22.441845
v 16.329678 0.021027 22.441845
v 16.329678 0.021027 25.016354
v 16.166439 2.892224 25.016354
v 16.166439 2.892224 22.441845
v 16.323574 2.892872 22.441845
v 16.323574 2.892872 25.016354
v 16.166607 3.264681 22.441845
v 16.323404 3.264681 22.441845
v 16.166607 3.116841 25.016354
v 16.323404 3.116841 25.016354
v 16.323404 3.116841 22.441845
v 16.166607 3.116841 22.441845
v 16.323404 3.264681 25.016354
v 16.166607 3.264681 25.016354
vt 0.281330 0.997972
vt 0.194306 0.952909
vt 0.281330 0.952909
vt 0.185980 0.002028
vt 0.186474 0.047091
vt 0.185980 0.047091
vt 0.376186 0.997972
vt 0.289162 0.952909
vt 0.376186 0.952909
vt 0.090781 0.002028
vt 0.091279 0.047091
vt 0.090781 0.047091
vt 0.186474 0.558940
vt 0.185980 0.997972
vt 0.185980 0.558940
vt 0.858297 0.445115
vt 0.945320 0.445373
vt 0.858297 0.445373
vt 0.858297 0.490099
vt 0.945320 0.490354
vt 0.858297 0.490354
vt 0.953152 0.047091
vt 0.996084 0.002028
vt 0.996084 0.047091
vt 0.003916 0.002028
vt 0.004410 0.047091
vt 0.003916 0.047091
vt 0.143046 0.002028
vt 0.143046 0.047091
vt 0.099111 0.002028
vt 0.099609 0.047091
vt 0.099111 0.047091
vt 0.116163 0.510398
vt 0.096592 0.533522
vt 0.096590 0.510398
vt 0.945320 0.467609
vt 0.858297 0.467609
vt 0.047841 0.002028
vt 0.047841 0.047091
vt 0.831390 0.446302
vt 0.830896 0.491365
vt 0.830896 0.446302
vt 0.823064 0.446302
vt 0.822566 0.491365
vt 0.822566 0.446302
vt 0.004410 0.558940
vt 0.003916 0.997972
vt 0.003916 0.558940
vt 0.945320 0.002028
vt 0.858297 0.441060
vt 0.858297 0.002028
vt 0.099609 0.557753
vt 0.099111 0.997972
vt 0.099111 0.557753
vt 0.194306 0.442246
vt 0.281330 0.002028
vt 0.281330 0.442246
vt 0.289162 0.441060
vt 0.376186 0.002028
vt 0.376186 0.441060
vt 0.763441 0.442247
vt 0.850464 0.002028
vt 0.850464 0.442247
vt 0.376186 0.504035
vt 0.289162 0.504035
vt 0.755609 0.002028
vt 0.668585 0.450902
vt 0.668585 0.002028
vt 0.996075 0.096210
vt 0.953152 0.051147
vt 0.996075 0.051147
vt 0.003916 0.495965
vt 0.004410 0.495965
vt 0.185980 0.495965
vt 0.186474 0.495965
vt 0.573729 0.451099
vt 0.660753 0.002028
vt 0.660753 0.451099
vt 0.099609 0.496163
vt 0.142551 0.557753
vt 0.281330 0.503837
vt 0.194306 0.503837
vt 0.099111 0.496163
vt 0.142455 0.512898
vt 0.129708 0.535550
vt 0.129706 0.512898
vt 0.091279 0.496163
vt 0.090781 0.557753
vt 0.090781 0.496163
vt 0.565897 0.512690
vt 0.478874 0.451099
vt 0.565897 0.451099
vt 0.047839 0.496163
vt 0.763441 0.446302
vt 0.806383 0.491365
vt 0.763441 0.491365
vt 0.668585 0.454958
vt 0.711525 0.500021
vt 0.668585 0.500021
vt 0.384018 0.433817
vt 0.471041 0.496792
vt 0.384018 0.496792
vt 0.996073 0.145329
vt 0.953152 0.100266
vt 0.996073 0.100266
vt 0.047333 0.558940
vt 0.143057 0.495965
vt 0.047333 0.495965
vt 0.047842 0.115557
vt 0.471041 0.002028
vt 0.471041 0.433817
vt 0.047839 0.557753
vt 0.142551 0.496163
vt 0.814215 0.446302
vt 0.814734 0.491365
vt 0.814215 0.491365
vt 0.047843 0.990708
vt 0.047324 0.990729
vt 0.478874 0.945645
vt 0.478874 0.512690
vt 0.174029 0.509784
vt 0.120006 0.541788
vt 0.120419 0.509696
vt 0.471041 0.877397
vt 0.384018 0.945666
vt 0.384018 0.877397
vt 0.133176 0.546929
vt 0.092756 0.506303
vt 0.132353 0.506282
vt 0.565897 0.070493
vt 0.004410 0.002028
vt 0.047344 0.047091
vt 0.047344 0.002028
vt 0.858297 0.467866
vt 0.945320 0.490099
vt 0.945320 0.467866
vt 0.099609 0.002028
vt 0.142549 0.047091
vt 0.142549 0.002028
vt 0.573729 0.500218
vt 0.616667 0.455155
vt 0.616667 0.500218
vt 0.478873 0.002028
vt 0.478873 0.070493
vt 0.167260 0.517640
vt 0.149684 0.537969
vt 0.167280 0.538028
vt 0.047343 0.115359
vt 0.194306 0.997972
vt 0.186474 0.002028
vt 0.289162 0.997972
vt 0.091279 0.002028
vt 0.186474 0.997972
vt 0.945320 0.445115
vt 0.953152 0.002028
vt 0.116166 0.533522
vt 0.831390 0.491365
vt 0.823064 0.491365
vt 0.004410 0.997972
vt 0.945320 0.441060
vt 0.099609 0.997972
vt 0.194306 0.002028
vt 0.289162 0.002028
vt 0.763441 0.002028
vt 0.755609 0.450902
vt 0.953152 0.096210
vt 0.573729 0.002028
vt 0.142458 0.535550
vt 0.091279 0.557753
vt 0.806383 0.446302
vt 0.711525 0.454958
vt 0.953152 0.145329
vt 0.143057 0.558940
vt 0.384018 0.002028
vt 0.814734 0.446302
vt 0.565897 0.945645
vt 0.175020 0.541790
vt 0.471041 0.945666
vt 0.092940 0.546950
vt 0.573729 0.455155
vt 0.565897 0.002028
vt 0.149702 0.517640
vn -1.0000 0.0000 0.0000
vn 0.0000 0.0000 -1.0000
vn 1.0000 0.0000 0.0000
vn 0.0000 0.0000 1.0000
vn 0.0000 1.0000 0.0000
vn 0.0000 -1.0000 0.0000
vn 1.0000 0.0020 0.0000
vn -0.0004 -1.0000 0.0000
vn -1.0000 0.0008 0.0000
vn 1.0000 0.0008 0.0000
vn 1.0000 0.0026 0.0000
vn -1.0000 -0.0006 0.0000
g Cube.029_Cube.018_prateleira-bancada
usemtl prateleira-bancada
s off
f 2/1/1 3/2/1 1/3/1
f 10/4/2 7/5/2 9/6/2
f 8/7/3 5/8/3 7/9/3
f 14/10/4 1/11/4 16/12/4
f 26/13/2 23/14/2 27/15/2
f 4/16/5 14/17/5 15/18/5
f 10/19/5 6/20/5 8/21/5
f 9/22/6 60/23/6 61/24/6
f 6/25/4 11/26/4 5/27/4
f 58/28/2 9/6/2 61/29/2
f 4/30/2 13/31/2 3/32/2
f 34/33/4 24/34/4 35/35/4
f 15/18/5 64/36/5 57/37/5
f 64/38/4 16/12/4 59/39/4
f 21/40/6 22/41/6 23/42/6
f 19/43/6 18/44/6 17/45/6
f 30/46/4 20/47/4 31/48/4
f 27/49/1 22/50/1 30/51/1
f 38/52/2 17/53/2 39/54/2
f 39/55/1 18/56/1 34/57/1
f 31/58/3 21/59/3 26/60/3
f 35/61/3 19/62/3 38/63/3
f 5/8/3 25/64/3 7/9/3
f 32/65/3 26/60/3 25/64/3
f 9/66/1 29/67/1 11/68/1
f 28/69/5 47/70/5 29/71/5
f 11/26/4 32/72/4 5/27/4
f 29/73/4 31/48/4 32/72/4
f 7/5/2 28/74/2 9/6/2
f 25/75/2 27/15/2 28/74/2
f 16/76/3 37/77/3 13/78/3
f 37/79/2 44/80/2 38/52/2
f 3/2/1 33/81/1 1/3/1
f 40/82/1 34/57/1 33/81/1
f 13/31/2 40/83/2 3/32/2
f 37/79/2 39/54/2 40/83/2
f 1/84/4 36/85/4 16/86/4
f 33/87/4 35/88/4 36/89/4
f 44/90/1 42/91/1 43/92/1
f 35/88/4 42/93/4 36/89/4
f 36/94/5 43/95/5 37/96/5
f 38/97/6 41/98/6 35/99/6
f 48/100/3 46/101/3 47/102/3
f 30/103/6 45/104/6 27/105/6
f 29/73/4 48/106/4 30/46/4
f 27/15/2 46/107/2 28/74/2
f 47/108/4 53/109/4 42/93/4
f 48/100/7 51/110/7 45/111/7
f 41/112/4 47/108/4 42/93/4
f 46/107/2 44/80/2 43/113/2
f 50/114/8 52/115/8 49/116/8
f 48/106/4 49/117/4 52/118/4
f 44/90/9 49/119/9 41/120/9
f 45/121/2 50/122/2 44/123/2
f 55/124/10 60/125/10 56/126/10
f 46/101/11 56/126/11 47/102/11
f 46/127/2 54/128/2 55/129/2
f 42/91/12 54/130/12 43/92/12
f 12/131/4 60/132/4 11/26/4
f 63/133/4 59/39/4 60/132/4
f 58/134/5 12/135/5 10/19/5
f 57/37/5 63/136/5 58/134/5
f 15/137/2 62/138/2 13/31/2
f 57/139/2 61/29/2 62/138/2
f 62/140/6 16/141/6 13/142/6
f 59/143/9 54/130/9 53/144/9
f 62/145/2 55/146/2 54/147/2
f 56/148/4 59/39/4 53/109/4
f 2/1/1 4/149/1 3/2/1
f 10/4/2 8/150/2 7/5/2
f 8/7/3 6/151/3 5/8/3
f 14/10/4 2/152/4 1/11/4
f 26/13/2 21/153/2 23/14/2
f 4/16/5 2/154/5 14/17/5
f 10/19/5 12/135/5 6/20/5
f 9/22/6 11/155/6 60/23/6
f 6/25/4 12/131/4 11/26/4
f 58/28/2 10/4/2 9/6/2
f 4/30/2 15/137/2 13/31/2
f 34/33/4 18/156/4 24/34/4
f 15/18/5 14/17/5 64/36/5
f 64/38/4 14/10/4 16/12/4
f 21/40/6 20/157/6 22/41/6
f 19/43/6 24/158/6 18/44/6
f 30/46/4 22/159/4 20/47/4
f 27/49/1 23/160/1 22/50/1
f 38/52/2 19/161/2 17/53/2
f 39/55/1 17/162/1 18/56/1
f 31/58/3 20/163/3 21/59/3
f 35/61/3 24/164/3 19/62/3
f 5/8/3 32/65/3 25/64/3
f 32/65/3 31/58/3 26/60/3
f 9/66/1 28/165/1 29/67/1
f 28/69/5 46/166/5 47/70/5
f 11/26/4 29/73/4 32/72/4
f 29/73/4 30/46/4 31/48/4
f 7/5/2 25/75/2 28/74/2
f 25/75/2 26/13/2 27/15/2
f 16/76/3 36/167/3 37/77/3
f 37/79/2 43/113/2 44/80/2
f 3/2/1 40/82/1 33/81/1
f 40/82/1 39/55/1 34/57/1
f 13/31/2 37/79/2 40/83/2
f 37/79/2 38/52/2 39/54/2
f 1/84/4 33/168/4 36/85/4
f 33/87/4 34/169/4 35/88/4
f 44/90/1 41/120/1 42/91/1
f 35/88/4 41/112/4 42/93/4
f 36/94/5 42/170/5 43/95/5
f 38/97/6 44/171/6 41/98/6
f 48/100/3 45/111/3 46/101/3
f 30/103/6 48/172/6 45/104/6
f 29/73/4 47/108/4 48/106/4
f 27/15/2 45/173/2 46/107/2
f 47/108/4 56/148/4 53/109/4
f 48/100/7 52/174/7 51/110/7
f 41/112/4 48/106/4 47/108/4
f 46/107/2 45/173/2 44/80/2
f 50/114/8 51/175/8 52/115/8
f 48/106/4 41/112/4 49/117/4
f 44/90/9 50/176/9 49/119/9
f 45/121/2 51/177/2 50/122/2
f 55/124/10 61/178/10 60/125/10
f 46/101/11 55/124/11 56/126/11
f 46/127/2 43/179/2 54/128/2
f 42/91/12 53/144/12 54/130/12
f 12/131/4 63/133/4 60/132/4
f 63/133/4 64/38/4 59/39/4
f 58/134/5 63/136/5 12/135/5
f 57/37/5 64/36/5 63/136/5
f 15/137/2 57/139/2 62/138/2
f 57/139/2 58/28/2 61/29/2
f 62/140/6 59/180/6 16/141/6
f 59/143/9 62/181/9 54/130/9
f 62/145/2 61/182/2 55/146/2
f 56/148/4 60/132/4 59/39/4
